<svg width="23" height="24" viewBox="0 0 23 24" fill="none"
  xmlns="http://www.w3.org/2000/svg">
  <path d="M11.75 2.12158C6.38501 2.12158 2.03491 6.68077 2.03491 12.2989C2.03491 16.7961 4.81932 20.6065 8.67933 21.9534C8.73347 21.9654 8.78873 21.9714 8.84414 21.9711C9.20412 21.9711 9.3429 21.7008 9.3429 21.466C9.3429 21.2223 9.33423 20.5843 9.32989 19.7336C9.00853 19.8106 8.67977 19.8507 8.34971 19.8532C6.48043 19.8532 6.05539 18.369 6.05539 18.369C5.61301 17.1948 4.97546 16.8802 4.97546 16.8802C4.12973 16.2732 4.97112 16.2555 5.03618 16.2555H5.04051C6.01636 16.3441 6.52813 17.31 6.52813 17.31C7.01389 18.1784 7.66445 18.4221 8.24562 18.4221C8.6299 18.4143 9.00824 18.3237 9.35591 18.1563C9.44266 17.5005 9.69421 17.053 9.97178 16.7961C7.81625 16.5391 5.54795 15.6662 5.54795 11.7672C5.54795 10.6551 5.92528 9.74682 6.54548 9.0379C6.44573 8.78092 6.11177 7.74414 6.6409 6.34404C6.71187 6.32669 6.78482 6.31924 6.85775 6.32189C7.20906 6.32189 8.00274 6.45924 9.31254 7.38968C10.9041 6.93479 12.5872 6.93479 14.1788 7.38968C15.4886 6.45924 16.2822 6.32189 16.6335 6.32189C16.7065 6.31924 16.7794 6.32669 16.8504 6.34404C17.3795 7.74414 17.0456 8.78092 16.9458 9.0379C17.566 9.75125 17.9433 10.6595 17.9433 11.7672C17.9433 15.6751 15.6707 16.5346 13.5065 16.7872C13.8535 17.1018 14.1657 17.7221 14.1657 18.6702C14.1657 20.0305 14.1527 21.1293 14.1527 21.4616C14.1527 21.7008 14.2872 21.9711 14.6472 21.9711C14.7054 21.9714 14.7636 21.9654 14.8206 21.9534C18.685 20.6065 21.4651 16.7916 21.4651 12.2989C21.4651 6.68077 17.115 2.12158 11.75 2.12158Z" fill="white"/>
</svg>
